<?xml version="1.0" encoding="UTF-8" standalone="no"?> <svg xmlns="http://www.w3.org/2000/svg" width="64.66" height="83.11" viewBox="0 0 64.66 83.11">
  <g id="Elf" transform="translate(-1000.82 -407.401)">
    <path id="Path_38" data-name="Path 38" d="M1025.5-748.233a2.611,2.611,0,0,1,2.61,2.609,2.611,2.611,0,0,1-2.61,2.609,2.611,2.611,0,0,1-2.61-2.609A2.611,2.611,0,0,1,1025.5-748.233Zm16.12,0a2.611,2.611,0,0,1,2.61,2.609,2.611,2.611,0,0,1-2.61,2.609,2.611,2.611,0,0,1-2.61-2.609A2.611,2.611,0,0,1,1041.62-748.233Z" transform="translate(0 1200)" fill="#ff5e5e" fill-rule="evenodd"/>
    <path id="Path_39" data-name="Path 39" d="M1046.4-725.023a17.629,17.629,0,0,1,7.75,14.284m-33.78-14.284a17.613,17.613,0,0,0-7.76,14.284m41.65-30.631c.08-3.4.04-5.827-.11-9.3m-41.54.65c-.17,5.431.06,3.169.14,8.075m41.51.574c0,9.893-9.94,21-20.82,21s-20.69-11.426-20.69-21.572m41.55-6.683,9.93-10.864s-3.95,19.159-9.93,17.547m-42.29-6.683-9.94-10.864s3.95,19.159,9.94,17.547m.6-8.075c0-8.455,9.35-15.319,20.85-15.319s20.69,6.864,20.69,15.319m-13.85-14.394a9.545,9.545,0,0,0,4.55,8.372,9.538,9.538,0,0,1-6.9,2.942,9.556,9.556,0,0,1-9.55-9.552,9.429,9.429,0,0,1,.14-1.6M1012.75-751.8c-.59-15.123,19.04-27.413,32.1-39.544,5.98,14.285,9.17,25.747,9.16,39.544m-31.43-19.772s9.55-3.153,16.23-1.57m-10.87,37.172h11.07S1034.72-724.86,1027.94-735.975Z" transform="translate(0 1200)" fill="none" stroke="#ff5e5e" stroke-linecap="round" stroke-linejoin="round" stroke-width="2.5"/>
  </g>
</svg>
